<?xml version="1.0" standalone="yes"?>
<svg xmlns="http://www.w3.org/2000/svg" width="365" height="67">
<path style="fill:#0b0b0b; stroke:none;" d="M0 0L0 67L365 67L365 0L0 0z"/>
<path style="fill:#434343; stroke:none;" d="M59 13L58 15L59 13z"/>
<path style="fill:#b0b0b0; stroke:none;" d="M11 14L12 15L11 14z"/>
<path style="fill:#fefefe; stroke:none;" d="M12.3179 15.0278C8.03566 17.8853 8.02156 43.8148 11.6034 47.3966C13.6742 49.4674 17.3408 48.9945 20 49C26.6171 49.0136 41.0762 51.713 46.6821 47.9722C50.9643 45.1147 50.9784 19.1852 47.3966 15.6034C45.3258 13.5326 41.6592 14.0055 39 14C32.3829 13.9864 17.9238 11.287 12.3179 15.0278z"/>
<path style="fill:#b0b0b0; stroke:none;" d="M47 14L48 15L47 14z"/>
<path style="fill:#fefefe; stroke:none;" d="M59 14L59 49L60 49L61 14L59 14z"/>
<path style="fill:#757575; stroke:none;" d="M10 15L11 16L10 15M48 15L49 16L48 15M58 15L58 48L59 48L58 15z"/>
<path style="fill:#434343; stroke:none;" d="M61 15L62 16L61 15M71.6667 15.3333L72.3333 15.6667L71.6667 15.3333z"/>
<path style="fill:#757575; stroke:none;" d="M73 15L73 16L77 16L73 15z"/>
<path style="fill:#b0b0b0; stroke:none;" d="M77.6667 15.3333L78.3333 15.6667L77.6667 15.3333z"/>
<path style="fill:#757575; stroke:none;" d="M79 15L79 16L82 16L79 15z"/>
<path style="fill:#434343; stroke:none;" d="M82.6667 15.3333L83.3333 15.6667L82.6667 15.3333M98 15L98 16L105 16L105 36C108.313 28.1057 108.09 15.1196 98 15M116 36L117 36L117 16L124 16C112.834 11.3655 116 29.7216 116 36M132.667 15.3333L133.333 15.6667L132.667 15.3333z"/>
<path style="fill:#757575; stroke:none;" d="M134 15L134 16L138 16L134 15z"/>
<path style="fill:#b0b0b0; stroke:none;" d="M138 15L138 16L141 16L138 15z"/>
<path style="fill:#757575; stroke:none;" d="M141 15L141 16L144 16L141 15z"/>
<path style="fill:#434343; stroke:none;" d="M144 15L145 16L144 15M171 15L171 16L178 16L171 15M194 15L194 16L202 16L194 15M213 15L213 16L221 16L213 15M236 16L236 17L245 16L236 16M255 15L255 16L263 17L255 15M277 15L277 16L284 16L277 15M295 15L295 16L303 16L295 15M309 15L309 16L316 16L316 41C319.447 32.785 319.828 15.1283 309 15M328 15L328 16L354 16L328 15z"/>
<path style="fill:#757575; stroke:none;" d="M61 16L61 47L62 47L61 16z"/>
<path style="fill:#fefefe; stroke:none;" d="M69 16L69 47L76 47L76 35L94 47C92.6804 43.3955 88.5361 38.8758 88.8511 35C89.2862 29.6457 94.4956 25.7762 90.3966 20.1335C85.9821 14.0565 75.5038 16 69 16z"/>
<path style="fill:#b0b0b0; stroke:none;" d="M85 16L86 17L85 16z"/>
<path style="fill:#757575; stroke:none;" d="M86 16L87 17L86 16z"/>
<path style="fill:#b0b0b0; stroke:none;" d="M98 16L98 37L99 37L98 16z"/>
<path style="fill:#fefefe; stroke:none;" d="M99 16C99 23.251 96.6663 35.4479 100.179 41.9452C103.981 48.9784 118.019 48.9784 121.821 41.9452C125.334 35.4479 123 23.251 123 16L117 16C117 21.588 120.027 41.1327 111 41.1327C101.973 41.1327 105 21.588 105 16L99 16z"/>
<path style="fill:#b0b0b0; stroke:none;" d="M123 16L123 38L124 38L123 16z"/>
<path style="fill:#757575; stroke:none;" d="M130 16L130 47L131 47L130 16z"/>
<path style="fill:#fefefe; stroke:none;" d="M131 16L131 47L137 47L137 35C145.939 37.5316 145.594 46.9631 156 47L148 34C154.412 30.4812 156.412 21.4935 148.945 17.4568C143.92 14.7398 136.527 16 131 16z"/>
<path style="fill:#b0b0b0; stroke:none;" d="M147 16L148 17L147 16z"/>
<path style="fill:#434343; stroke:none;" d="M148 16L149 17L148 16z"/>
<path style="fill:#fefefe; stroke:none;" d="M159 47L174.997 40.0239L190 47C188.533 40.6598 182.009 14.1296 173.209 16.3372C166.18 18.1007 161.145 40.6594 159 47z"/>
<path style="fill:#757575; stroke:none;" d="M178 16L179 17L178 16M194 16L194 47L195 47L194 16z"/>
<path style="fill:#fefefe; stroke:none;" d="M195 16L195 47L215 47L215 41L201 41L201 16L195 16z"/>
<path style="fill:#757575; stroke:none;" d="M201 16L201 41L202 41L201 16z"/>
<path style="fill:#b0b0b0; stroke:none;" d="M213 16L214 17L213 16z"/>
<path style="fill:#fefefe; stroke:none;" d="M214 16L225 47C236.92 46.8587 241.676 26.0402 244 16L237 16L230 38L228 38L221 16L214 16z"/>
<path style="fill:#757575; stroke:none;" d="M244 16L245 17L244 16M254 16L255 17L254 16z"/>
<path style="fill:#fefefe; stroke:none;" d="M243 47L250 47C252.104 39.0351 257.979 40 265 40C266.042 45.6866 268.444 46.9338 274 47C271.893 40.5349 267.015 18.1674 259.802 16.3372C251.276 14.1735 244.469 40.7995 243 47M277 16C277 23.7272 274.923 35.0853 279.09 41.956C283.635 49.4515 296.844 48.6891 300.821 40.9846C304.156 34.5243 302 23.1387 302 16L296 16C296 21.1632 298.799 43.1101 289.015 41.1682C280.971 39.5719 284 21.8682 284 16L277 16z"/>
<path style="fill:#757575; stroke:none;" d="M295 16L295 35L296 35L295 16M302 16L302 37L303 37L302 16z"/>
<path style="fill:#b0b0b0; stroke:none;" d="M309 16L309 47L310 47L309 16z"/>
<path style="fill:#fefefe; stroke:none;" d="M310 16L310 47L330 47L330 41L316 41L316 16L310 16z"/>
<path style="fill:#757575; stroke:none;" d="M328 16L328 22L329 22L328 16z"/>
<path style="fill:#fefefe; stroke:none;" d="M329 16L329 21L338 21L338 47L344 47C344 36.2932 339.785 21.0502 354 21L354 16L329 16z"/>
<path style="fill:#b0b0b0; stroke:none;" d="M8 17L6 20C9.44783 19.3104 8.99718 44.7493 6 44L9 47L8 17z"/>
<path style="fill:#0b0b0b; stroke:none;" d="M13 17L13 46L46 46L46 17L13 17z"/>
<path style="fill:#757575; stroke:none;" d="M88 17L89 18L88 17z"/>
<path style="fill:#b0b0b0; stroke:none;" d="M149 17L150 18L149 17z"/>
<path style="fill:#434343; stroke:none;" d="M150 17L151 18L150 17z"/>
<path style="fill:#757575; stroke:none;" d="M170 17L171 18L170 17M213 17L214 18L213 17z"/>
<path style="fill:#434343; stroke:none;" d="M221 17L222 18L221 17z"/>
<path style="fill:#757575; stroke:none;" d="M236 17L237 18L236 17z"/>
<path style="fill:#b0b0b0; stroke:none;" d="M254 17L255 18L254 17M262 17L263 18L262 17M89 18L90 19L89 18z"/>
<path style="fill:#434343; stroke:none;" d="M151 18L152 19L151 18z"/>
<path style="fill:#757575; stroke:none;" d="M179 18L180 19L179 18z"/>
<path style="fill:#434343; stroke:none;" d="M213 18L214 19L213 18z"/>
<path style="fill:#b0b0b0; stroke:none;" d="M221 18L222 19L221 18M236 18L237 19L236 18M243 18L244 19L243 18z"/>
<path style="fill:#434343; stroke:none;" d="M253 18L254 19L253 18M5 19L5 45L6 45L5 19z"/>
<path style="fill:#fefefe; stroke:none;" d="M7 19C4.8478 26.2811 4.84781 37.7189 7 45L8 45L7 19z"/>
<path style="fill:#b0b0b0; stroke:none;" d="M50 19L50 24L51 24L50 19M90 19L91 20L90 19z"/>
<path style="fill:#434343; stroke:none;" d="M152 19L153 20L152 19z"/>
<path style="fill:#757575; stroke:none;" d="M169 19L170 20L169 19z"/>
<path style="fill:#b0b0b0; stroke:none;" d="M179 19L180 20L179 19M214 19L215 20L214 19z"/>
<path style="fill:#434343; stroke:none;" d="M235 19L236 20L235 19M243 19L244 20L243 19z"/>
<path style="fill:#b0b0b0; stroke:none;" d="M253 19L254 20L253 19z"/>
<path style="fill:#757575; stroke:none;" d="M263 19L264 20L263 19z"/>
<path style="fill:#434343; stroke:none;" d="M91 20L92 21L91 20M180 20L181 21L180 20z"/>
<path style="fill:#757575; stroke:none;" d="M214 20L215 21L214 20z"/>
<path style="fill:#434343; stroke:none;" d="M222 20L223 21L222 20z"/>
<path style="fill:#757575; stroke:none;" d="M235 20L236 21L235 20z"/>
<path style="fill:#434343; stroke:none;" d="M252 20L253 21L252 20M33 21L35 23L33 21z"/>
<path style="fill:#757575; stroke:none;" d="M76.6667 21.3333L77.3333 21.6667L76.6667 21.3333z"/>
<path style="fill:#434343; stroke:none;" d="M78 21L79 22L78 21z"/>
<path style="fill:#757575; stroke:none;" d="M79.6667 21.3333L80.3333 21.6667L79.6667 21.3333z"/>
<path style="fill:#b0b0b0; stroke:none;" d="M81 21L82 22L81 21M137 21L138 22L137 21z"/>
<path style="fill:#757575; stroke:none;" d="M138 21L137 30L138 30L138 21z"/>
<path style="fill:#434343; stroke:none;" d="M139 21L140 22L139 21z"/>
<path style="fill:#757575; stroke:none;" d="M140 21L140 22L143 22L140 21z"/>
<path style="fill:#b0b0b0; stroke:none;" d="M143 21L144 22L143 21z"/>
<path style="fill:#757575; stroke:none;" d="M153 21L154 22L153 21z"/>
<path style="fill:#434343; stroke:none;" d="M168 21L169 22L168 21z"/>
<path style="fill:#b0b0b0; stroke:none;" d="M180 21L181 22L180 21M222 21L223 22L222 21M235 21L236 22L235 21M242 21L243 22L242 21M252 21L253 22L252 21z"/>
<path style="fill:#757575; stroke:none;" d="M264 21L265 22L264 21z"/>
<path style="fill:#b0b0b0; stroke:none;" d="M329 21L329 22L338 22L329 21M345 21L345 22L354 22L345 21M33 22L35 24L33 22z"/>
<path style="fill:#0b0b0b; stroke:none;" d="M76 22L76 30C85.8585 29.1865 86.1615 22.1201 76 22z"/>
<path style="fill:#434343; stroke:none;" d="M83 22L84 23L83 22M92 22L93 23L92 22z"/>
<path style="fill:#0b0b0b; stroke:none;" d="M138 22L138 30C147.394 29.147 147.751 22.1155 138 22z"/>
<path style="fill:#757575; stroke:none;" d="M145 22L146 23L145 22z"/>
<path style="fill:#b0b0b0; stroke:none;" d="M153 22L154 23L153 22M168 22L169 23L168 22z"/>
<path style="fill:#434343; stroke:none;" d="M181 22L182 23L181 22z"/>
<path style="fill:#b0b0b0; stroke:none;" d="M215 22L216 23L215 22z"/>
<path style="fill:#434343; stroke:none;" d="M234 22L235 23L234 22M242 22L243 23L242 22M337 22L337 47L338 47L337 22z"/>
<path style="fill:#b0b0b0; stroke:none;" d="M344 22L344 47L345 47L344 22z"/>
<path style="fill:#434343; stroke:none;" d="M31.6667 23.3333L32.3333 23.6667L31.6667 23.3333z"/>
<path style="fill:#fefefe; stroke:none;" d="M33 23C31.8183 24.9276 30.2236 26.8914 29.3935 29.0039C25.3309 39.3419 44.8637 37.5755 36.8765 26.6343C35.776 25.1266 34.4501 24.1292 33 23z"/>
<path style="fill:#757575; stroke:none;" d="M35.3333 23.6667L35.6667 24.3333L35.3333 23.6667z"/>
<path style="fill:#434343; stroke:none;" d="M36 23L37 24L36 23M84 23L85 24L84 23z"/>
<path style="fill:#757575; stroke:none;" d="M92.3333 23.6667L92.6667 24.3333L92.3333 23.6667z"/>
<path style="fill:#b0b0b0; stroke:none;" d="M146 23L147 24L146 23z"/>
<path style="fill:#434343; stroke:none;" d="M167 23L168 24L167 23z"/>
<path style="fill:#757575; stroke:none;" d="M174 23L175 24L174 23z"/>
<path style="fill:#b0b0b0; stroke:none;" d="M181 23L182 24L181 23z"/>
<path style="fill:#434343; stroke:none;" d="M215 23L216 24L215 23z"/>
<path style="fill:#757575; stroke:none;" d="M223 23L224 24L223 23M234 23L235 24L234 23M251 23L252 24L251 23M258 23L259 24L258 23z"/>
<path style="fill:#434343; stroke:none;" d="M265 23L266 24L265 23z"/>
<path style="fill:#757575; stroke:none;" d="M29 24L30 25L29 24z"/>
<path style="fill:#fefefe; stroke:none;" d="M30 24L31 25L30 24z"/>
<path style="fill:#b0b0b0; stroke:none;" d="M31.6667 24.3333L32.3333 24.6667L31.6667 24.3333M36.6667 24.3333L37.3333 24.6667L36.6667 24.3333z"/>
<path style="fill:#757575; stroke:none;" d="M37 25L37 26L41 27L39 24L37 25z"/>
<path style="fill:#434343; stroke:none;" d="M50 24L51 25L50 24z"/>
<path style="fill:#b0b0b0; stroke:none;" d="M85 24L85 27L86 27L85 24z"/>
<path style="fill:#434343; stroke:none;" d="M146 24L147 25L146 24M154 24L154 28L155 28L154 24z"/>
<path style="fill:#b0b0b0; stroke:none;" d="M167 24L168 25L167 24z"/>
<path style="fill:#0b0b0b; stroke:none;" d="M174 24L171 34L178 34L174 24z"/>
<path style="fill:#b0b0b0; stroke:none;" d="M175 24L176 25L175 24M223 24L224 25L223 24z"/>
<path style="fill:#757575; stroke:none;" d="M241 24L242 25L241 24z"/>
<path style="fill:#b0b0b0; stroke:none;" d="M257 24L258 25L257 24z"/>
<path style="fill:#434343; stroke:none;" d="M258 24L257 26L258 24z"/>
<path style="fill:#b0b0b0; stroke:none;" d="M265 24L266 25L265 24M27 27L30 25L27 27z"/>
<path style="fill:#434343; stroke:none;" d="M30 25L29 28L30 25z"/>
<path style="fill:#757575; stroke:none;" d="M31 25L32 26L31 25z"/>
<path style="fill:#434343; stroke:none;" d="M36 25L37 26L36 25z"/>
<path style="fill:#fefefe; stroke:none;" d="M38 25L41 28L38 25z"/>
<path style="fill:#b0b0b0; stroke:none;" d="M92.3333 25.6667L92.6667 26.3333L92.3333 25.6667M173 25L174 26L173 25z"/>
<path style="fill:#757575; stroke:none;" d="M175 25L176 26L175 25M182 25L183 26L182 25z"/>
<path style="fill:#b0b0b0; stroke:none;" d="M216 25L217 26L216 25z"/>
<path style="fill:#434343; stroke:none;" d="M233 25L234 26L233 25M241 25L242 26L241 25z"/>
<path style="fill:#757575; stroke:none;" d="M250 25L251 26L250 25z"/>
<path style="fill:#0b0b0b; stroke:none;" d="M258 25L255 34L262 34L258 25z"/>
<path style="fill:#b0b0b0; stroke:none;" d="M259 25L260 26L259 25z"/>
<path style="fill:#434343; stroke:none;" d="M266 25L267 26L266 25z"/>
<path style="fill:#0b0b0b; stroke:none;" d="M29 26L30 27L29 26z"/>
<path style="fill:#b0b0b0; stroke:none;" d="M36 26L37 27L36 26z"/>
<path style="fill:#0b0b0b; stroke:none;" d="M37 26L40 29L37 26z"/>
<path style="fill:#434343; stroke:none;" d="M38 26L39 27L38 26z"/>
<path style="fill:#757575; stroke:none;" d="M166 26L167 27L166 26z"/>
<path style="fill:#434343; stroke:none;" d="M173 26L174 27L173 26M216 26L217 27L216 26z"/>
<path style="fill:#757575; stroke:none;" d="M224 26L225 27L224 26z"/>
<path style="fill:#b0b0b0; stroke:none;" d="M233 26L234 27L233 26M240 26L241 27L240 26M250 26L251 27L250 26z"/>
<path style="fill:#757575; stroke:none;" d="M259 26L260 27L259 26M266 26L267 27L266 26z"/>
<path style="fill:#434343; stroke:none;" d="M26 27L27 28L26 27z"/>
<path style="fill:#fefefe; stroke:none;" d="M27 27L28 28L27 27z"/>
<path style="fill:#0b0b0b; stroke:none;" d="M28 27C26.7717 32.3625 27.5147 36.0273 33 38L33 37L28 27z"/>
<path style="fill:#b0b0b0; stroke:none;" d="M33.6667 27.3333L34.3333 27.6667L33.6667 27.3333z"/>
<path style="fill:#434343; stroke:none;" d="M39 27L40 28L39 27z"/>
<path style="fill:#757575; stroke:none;" d="M92 27L93 28L92 27M146 27L147 28L146 27z"/>
<path style="fill:#b0b0b0; stroke:none;" d="M172 27L173 28L172 27M176 27L177 28L176 27z"/>
<path style="fill:#434343; stroke:none;" d="M183 27L184 28L183 27z"/>
<path style="fill:#b0b0b0; stroke:none;" d="M217 27L218 28L217 27M224 27L225 28L224 27z"/>
<path style="fill:#757575; stroke:none;" d="M240 27L241 28L240 27z"/>
<path style="fill:#434343; stroke:none;" d="M249 27L250 28L249 27z"/>
<path style="fill:#757575; stroke:none;" d="M256 27L257 28L256 27z"/>
<path style="fill:#b0b0b0; stroke:none;" d="M18 28L18 35L19 35L18 28z"/>
<path style="fill:#fefefe; stroke:none;" d="M19 28L20 29L19 28z"/>
<path style="fill:#b0b0b0; stroke:none;" d="M20 28L20 31L21 31L20 28z"/>
<path style="fill:#757575; stroke:none;" d="M21 28L22 29L21 28z"/>
<path style="fill:#b0b0b0; stroke:none;" d="M26 28L27 29L26 28z"/>
<path style="fill:#757575; stroke:none;" d="M27 28L28 29L27 28z"/>
<path style="fill:#b0b0b0; stroke:none;" d="M29 28L30 29L29 28z"/>
<path style="fill:#757575; stroke:none;" d="M31 28L32 29L31 28z"/>
<path style="fill:#0b0b0b; stroke:none;" d="M32.4583 29.0856C29.4447 31.0575 32.4312 35.9999 35.4074 33.9144C38.1613 31.9846 35.5314 27.0748 32.4583 29.0856z"/>
<path style="fill:#b0b0b0; stroke:none;" d="M36 28L37 29L36 28M38 28L39 29L38 28M40.6667 28.3333L41.3333 28.6667L40.6667 28.3333M84 28L85 29L84 28z"/>
<path style="fill:#434343; stroke:none;" d="M92 28L93 29L92 28M145 28L146 29L145 28M165 28L166 29L165 28z"/>
<path style="fill:#757575; stroke:none;" d="M172 28L173 29L172 28z"/>
<path style="fill:#434343; stroke:none;" d="M176 28L177 29L176 28z"/>
<path style="fill:#b0b0b0; stroke:none;" d="M183 28L184 29L183 28z"/>
<path style="fill:#757575; stroke:none;" d="M217 28L218 29L217 28z"/>
<path style="fill:#434343; stroke:none;" d="M225 28L226 29L225 28M232 28L233 29L232 28z"/>
<path style="fill:#b0b0b0; stroke:none;" d="M249 28L250 29L249 28z"/>
<path style="fill:#434343; stroke:none;" d="M256 28L257 29L256 28z"/>
<path style="fill:#b0b0b0; stroke:none;" d="M260 28L261 29L260 28z"/>
<path style="fill:#757575; stroke:none;" d="M267 28L268 29L267 28z"/>
<path style="fill:#0b0b0b; stroke:none;" d="M19 29L20 30L19 29z"/>
<path style="fill:#757575; stroke:none;" d="M20 29L21 30L20 29M22 29L23 30L22 29z"/>
<path style="fill:#434343; stroke:none;" d="M25 29L26 30L25 29z"/>
<path style="fill:#fefefe; stroke:none;" d="M26 29L27 30L26 29z"/>
<path style="fill:#b0b0b0; stroke:none;" d="M28 29L29 30L28 29M30 29L31 30L30 29M37 29L38 30L37 29z"/>
<path style="fill:#757575; stroke:none;" d="M39 29L40 30L39 29z"/>
<path style="fill:#434343; stroke:none;" d="M40 29L41 30L40 29z"/>
<path style="fill:#fefefe; stroke:none;" d="M41 29L41 33L42 33L41 29z"/>
<path style="fill:#434343; stroke:none;" d="M80.6667 29.3333L81.3333 29.6667L80.6667 29.3333z"/>
<path style="fill:#b0b0b0; stroke:none;" d="M82 29L83 30L82 29z"/>
<path style="fill:#434343; stroke:none;" d="M142 29L143 30L142 29z"/>
<path style="fill:#757575; stroke:none;" d="M143 29L144 30L143 29z"/>
<path style="fill:#b0b0b0; stroke:none;" d="M144 29L145 30L144 29M153 29L154 30L153 29M165 29L166 30L165 29z"/>
<path style="fill:#757575; stroke:none;" d="M225 29L226 30L225 29z"/>
<path style="fill:#b0b0b0; stroke:none;" d="M232 29L233 30L232 29M239 29L240 30L239 29M255 29L256 30L255 29z"/>
<path style="fill:#434343; stroke:none;" d="M260 29L261 30L260 29z"/>
<path style="fill:#b0b0b0; stroke:none;" d="M267 29L268 30L267 29z"/>
<path style="fill:#757575; stroke:none;" d="M16 30L17 31L16 30z"/>
<path style="fill:#434343; stroke:none;" d="M18 30L19 31L18 30z"/>
<path style="fill:#fefefe; stroke:none;" d="M19 30L19 33L21 32L21 31L19 30z"/>
<path style="fill:#434343; stroke:none;" d="M21 30L21 33L22 33L21 30z"/>
<path style="fill:#fefefe; stroke:none;" d="M22 30L22 33L23 33L22 30z"/>
<path style="fill:#757575; stroke:none;" d="M25 30L25 32L27 32L25 30z"/>
<path style="fill:#b0b0b0; stroke:none;" d="M26 30L27 31L26 30z"/>
<path style="fill:#434343; stroke:none;" d="M30 30L31 31L30 30z"/>
<path style="fill:#757575; stroke:none;" d="M37 30L38 31L37 30z"/>
<path style="fill:#b0b0b0; stroke:none;" d="M39.3333 30.6667L39.6667 31.3333L39.3333 30.6667z"/>
<path style="fill:#0b0b0b; stroke:none;" d="M40 30L40 33L41 33L40 30z"/>
<path style="fill:#757575; stroke:none;" d="M91 30L92 31L91 30z"/>
<path style="fill:#b0b0b0; stroke:none;" d="M171 30L172 31L171 30z"/>
<path style="fill:#757575; stroke:none;" d="M177 30L178 31L177 30M184 30L185 31L184 30z"/>
<path style="fill:#b0b0b0; stroke:none;" d="M218 30L219 31L218 30M225 30L226 31L225 30z"/>
<path style="fill:#434343; stroke:none;" d="M239 30L240 31L239 30z"/>
<path style="fill:#757575; stroke:none;" d="M248 30L249 31L248 30M255 30L256 31L255 30z"/>
<path style="fill:#b0b0b0; stroke:none;" d="M261 30L262 31L261 30z"/>
<path style="fill:#434343; stroke:none;" d="M268 30L269 31L268 30z"/>
<path style="fill:#757575; stroke:none;" d="M17 31L18 32L17 31z"/>
<path style="fill:#434343; stroke:none;" d="M23 31L24 32L23 31M37 31L38 32L37 31z"/>
<path style="fill:#b0b0b0; stroke:none;" d="M90 31L91 32L90 31z"/>
<path style="fill:#757575; stroke:none;" d="M152 31L153 32L152 31M164 31L165 32L164 31z"/>
<path style="fill:#434343; stroke:none;" d="M171 31L172 32L171 31M177 31L178 32L177 31M218 31L219 32L218 31M226 31L227 32L226 31M231 31L232 32L231 31z"/>
<path style="fill:#b0b0b0; stroke:none;" d="M238 31L239 32L238 31M248 31L249 32L248 31z"/>
<path style="fill:#757575; stroke:none;" d="M261 31L262 32L261 31M268 31L269 32L268 31M16 32L17 33L16 32z"/>
<path style="fill:#434343; stroke:none;" d="M18 32L19 33L18 32z"/>
<path style="fill:#b0b0b0; stroke:none;" d="M20 32L20 35L21 35L20 32z"/>
<path style="fill:#434343; stroke:none;" d="M25 32L26 33L25 32z"/>
<path style="fill:#b0b0b0; stroke:none;" d="M26 32L27 33L26 32M28.3333 32.6667L28.6667 33.3333L28.3333 32.6667z"/>
<path style="fill:#434343; stroke:none;" d="M30 32L31 33L30 32z"/>
<path style="fill:#757575; stroke:none;" d="M37 32L38 33L37 32M39.3333 32.6667L39.6667 33.3333L39.3333 32.6667z"/>
<path style="fill:#b0b0b0; stroke:none;" d="M89 32L90 33L89 32z"/>
<path style="fill:#757575; stroke:none;" d="M151 32L152 33L151 32z"/>
<path style="fill:#b0b0b0; stroke:none;" d="M164 32L165 33L164 32M178 32L179 33L178 32z"/>
<path style="fill:#434343; stroke:none;" d="M185 32L186 33L185 32z"/>
<path style="fill:#b0b0b0; stroke:none;" d="M226 32L227 33L226 32M231 32L232 33L231 32z"/>
<path style="fill:#757575; stroke:none;" d="M238 32L239 33L238 32z"/>
<path style="fill:#434343; stroke:none;" d="M247 32L248 33L247 32z"/>
<path style="fill:#b0b0b0; stroke:none;" d="M254 32L255 33L254 32z"/>
<path style="fill:#434343; stroke:none;" d="M19 33L20 34L19 33z"/>
<path style="fill:#757575; stroke:none;" d="M20 33L21 34L20 33M22 33L23 34L22 33z"/>
<path style="fill:#fefefe; stroke:none;" d="M26 33L27 34L26 33z"/>
<path style="fill:#b0b0b0; stroke:none;" d="M30 33L31 34L30 33M37 33L38 34L37 33z"/>
<path style="fill:#434343; stroke:none;" d="M40 33L41 34L40 33z"/>
<path style="fill:#b0b0b0; stroke:none;" d="M41 33L40 35L42 35L41 33z"/>
<path style="fill:#434343; stroke:none;" d="M88 33L89 34L88 33z"/>
<path style="fill:#b0b0b0; stroke:none;" d="M149 33L150 34L149 33z"/>
<path style="fill:#434343; stroke:none;" d="M150 33L151 34L150 33M163 33L164 34L163 33z"/>
<path style="fill:#b0b0b0; stroke:none;" d="M170 33L171 34L170 33z"/>
<path style="fill:#757575; stroke:none;" d="M178 33L179 34L178 33z"/>
<path style="fill:#b0b0b0; stroke:none;" d="M185 33L186 34L185 33z"/>
<path style="fill:#757575; stroke:none;" d="M219 33L220 34L219 33M247 33L248 34L247 33z"/>
<path style="fill:#434343; stroke:none;" d="M254 33L262 35L262 34L254 33z"/>
<path style="fill:#b0b0b0; stroke:none;" d="M262.333 33.6667L262.667 34.3333L262.333 33.6667z"/>
<path style="fill:#434343; stroke:none;" d="M269 33L270 34L269 33z"/>
<path style="fill:#fefefe; stroke:none;" d="M19 34L20 35L19 34z"/>
<path style="fill:#757575; stroke:none;" d="M21 34L22 35L21 34z"/>
<path style="fill:#b0b0b0; stroke:none;" d="M26 34L27 35L26 34z"/>
<path style="fill:#757575; stroke:none;" d="M27 34L28 35L27 34M31 34L32 35L31 34z"/>
<path style="fill:#b0b0b0; stroke:none;" d="M36 34L37 35L36 34M38 34L39 35L38 34z"/>
<path style="fill:#0b0b0b; stroke:none;" d="M39 34L34 37L34 38L39 34z"/>
<path style="fill:#b0b0b0; stroke:none;" d="M148 34L149 35L148 34M163 34L164 35L163 34z"/>
<path style="fill:#757575; stroke:none;" d="M170 34L171 35L170 34z"/>
<path style="fill:#434343; stroke:none;" d="M171 34L171 35L179 35L171 34M227 34L228 35L227 34z"/>
<path style="fill:#757575; stroke:none;" d="M230 34L231 35L230 34z"/>
<path style="fill:#b0b0b0; stroke:none;" d="M237 34L238 35L237 34M269 34L270 35L269 34z"/>
<path style="fill:#434343; stroke:none;" d="M26 35L27 36L26 35z"/>
<path style="fill:#fefefe; stroke:none;" d="M27 35L28 36L27 35z"/>
<path style="fill:#434343; stroke:none;" d="M29 35L30 36L29 35z"/>
<path style="fill:#b0b0b0; stroke:none;" d="M33.6667 35.3333L34.3333 35.6667L33.6667 35.3333z"/>
<path style="fill:#757575; stroke:none;" d="M39 35L40 36L39 35z"/>
<path style="fill:#fefefe; stroke:none;" d="M40 35L37 39L40 35z"/>
<path style="fill:#757575; stroke:none;" d="M76 35L76 36L79 36L76 35z"/>
<path style="fill:#b0b0b0; stroke:none;" d="M79 35L80 36L79 35M87 35L88 36L87 35M137 35L138 36L137 35z"/>
<path style="fill:#757575; stroke:none;" d="M138 35L138 36L141 36L138 35M149 35L150 36L149 35M186 35L187 36L186 35z"/>
<path style="fill:#b0b0b0; stroke:none;" d="M220 35L221 36L220 35M227 35L228 36L227 35M230 35L231 36L230 35z"/>
<path style="fill:#434343; stroke:none;" d="M237 35L238 36L237 35M246 35L247 36L246 35z"/>
<path style="fill:#b0b0b0; stroke:none;" d="M295.333 35.6667L295.667 36.3333L295.333 35.6667z"/>
<path style="fill:#434343; stroke:none;" d="M18.3333 36.6667L18.6667 37.3333L18.3333 36.6667z"/>
<path style="fill:#b0b0b0; stroke:none;" d="M19 36L21 38L19 36z"/>
<path style="fill:#757575; stroke:none;" d="M20 36L21 37L20 36M27 36L29 38L27 36z"/>
<path style="fill:#b0b0b0; stroke:none;" d="M28 36L29 37L28 36M31 36L32 37L31 36M36 36L37 37L36 36z"/>
<path style="fill:#434343; stroke:none;" d="M40 36L41 37L40 36z"/>
<path style="fill:#b0b0b0; stroke:none;" d="M80 36L81 37L80 36z"/>
<path style="fill:#757575; stroke:none;" d="M88 36L89 37L88 36M105 36L106 37L105 36M116 36L117 37L116 36M137 36L137 47L138 47L137 36z"/>
<path style="fill:#434343; stroke:none;" d="M141 36L142 37L141 36M150 36L151 37L150 36z"/>
<path style="fill:#757575; stroke:none;" d="M162 36L163 37L162 36z"/>
<path style="fill:#b0b0b0; stroke:none;" d="M186 36L187 37L186 36z"/>
<path style="fill:#434343; stroke:none;" d="M220 36L221 37L220 36M229 36L230 37L229 36z"/>
<path style="fill:#b0b0b0; stroke:none;" d="M236 36L237 37L236 36M246 36L247 37L246 36z"/>
<path style="fill:#757575; stroke:none;" d="M270 36L271 37L270 36z"/>
<path style="fill:#fefefe; stroke:none;" d="M19 37L19 44L21 44L19 37z"/>
<path style="fill:#b0b0b0; stroke:none;" d="M29 37L30 38L29 37z"/>
<path style="fill:#434343; stroke:none;" d="M30 37L29 39L30 37M33.3333 37.6667L33.6667 38.3333L33.3333 37.6667M37 37L38 38L37 37z"/>
<path style="fill:#757575; stroke:none;" d="M39 37L40 38L39 37z"/>
<path style="fill:#434343; stroke:none;" d="M80 37L81 38L80 37M89 37L90 38L89 37z"/>
<path style="fill:#757575; stroke:none;" d="M98.3333 37.6667L98.6667 38.3333L98.3333 37.6667z"/>
<path style="fill:#b0b0b0; stroke:none;" d="M105 37L106 38L105 37M116 37L117 38L116 37z"/>
<path style="fill:#757575; stroke:none;" d="M142 37L143 38L142 37z"/>
<path style="fill:#b0b0b0; stroke:none;" d="M150 37L151 38L150 37M162 37L163 38L162 37z"/>
<path style="fill:#434343; stroke:none;" d="M187 37L188 38L187 37z"/>
<path style="fill:#b0b0b0; stroke:none;" d="M221 37L222 38L221 37z"/>
<path style="fill:#757575; stroke:none;" d="M228 37L229 38L228 37z"/>
<path style="fill:#b0b0b0; stroke:none;" d="M229 37L230 38L229 37z"/>
<path style="fill:#757575; stroke:none;" d="M236 37L237 38L236 37z"/>
<path style="fill:#b0b0b0; stroke:none;" d="M270 37L271 38L270 37z"/>
<path style="fill:#434343; stroke:none;" d="M284 37L285 38L284 37M302.333 37.6667L302.667 38.3333L302.333 37.6667z"/>
<path style="fill:#757575; stroke:none;" d="M18 38L18 41L19 41L18 38z"/>
<path style="fill:#fefefe; stroke:none;" d="M30 38L31 39L30 38z"/>
<path style="fill:#b0b0b0; stroke:none;" d="M31 38L32 39L31 38z"/>
<path style="fill:#757575; stroke:none;" d="M32.3333 38.6667L32.6667 39.3333L32.3333 38.6667M34 38L36 40L36 38L34 38z"/>
<path style="fill:#b0b0b0; stroke:none;" d="M36 38L37 39L36 38z"/>
<path style="fill:#434343; stroke:none;" d="M50 38L51 39L50 38z"/>
<path style="fill:#757575; stroke:none;" d="M81 38L82 39L81 38z"/>
<path style="fill:#b0b0b0; stroke:none;" d="M89 38L90 39L89 38z"/>
<path style="fill:#757575; stroke:none;" d="M123 38L124 39L123 38z"/>
<path style="fill:#b0b0b0; stroke:none;" d="M143 38L144 39L143 38z"/>
<path style="fill:#757575; stroke:none;" d="M151 38L152 39L151 38M187 38L188 39L187 38M221 38L222 39L221 38M245 38L246 39L245 38z"/>
<path style="fill:#434343; stroke:none;" d="M271 38L272 39L271 38z"/>
<path style="fill:#b0b0b0; stroke:none;" d="M277 38L278 39L277 38M284 38L285 39L284 38z"/>
<path style="fill:#434343; stroke:none;" d="M294 38L295 39L294 38M31 39L32 40L31 39z"/>
<path style="fill:#b0b0b0; stroke:none;" d="M33.6667 39.3333L34.3333 39.6667L33.6667 39.3333z"/>
<path style="fill:#434343; stroke:none;" d="M36 39L37 40L36 39z"/>
<path style="fill:#b0b0b0; stroke:none;" d="M50 39L50 44L51 44L50 39M82 39L83 40L82 39z"/>
<path style="fill:#757575; stroke:none;" d="M90 39L91 40L90 39z"/>
<path style="fill:#434343; stroke:none;" d="M98 39L99 40L98 39z"/>
<path style="fill:#b0b0b0; stroke:none;" d="M106 39L107 40L106 39z"/>
<path style="fill:#757575; stroke:none;" d="M115 39L116 40L115 39z"/>
<path style="fill:#434343; stroke:none;" d="M123 39L124 40L123 39M143 39L144 40L143 39M152 39L153 40L152 39z"/>
<path style="fill:#757575; stroke:none;" d="M161 39L162 40L161 39M235 39L236 40L235 39z"/>
<path style="fill:#b0b0b0; stroke:none;" d="M245 39L246 40L245 39M271 39L272 40L271 39z"/>
<path style="fill:#757575; stroke:none;" d="M277 39L278 40L277 39z"/>
<path style="fill:#434343; stroke:none;" d="M285 39L286 40L285 39z"/>
<path style="fill:#b0b0b0; stroke:none;" d="M294 39L295 40L294 39z"/>
<path style="fill:#434343; stroke:none;" d="M82 40L83 41L82 40M91 40L92 41L91 40z"/>
<path style="fill:#757575; stroke:none;" d="M107 40L108 41L107 40M114 40L115 41L114 40M144 40L145 41L144 40z"/>
<path style="fill:#b0b0b0; stroke:none;" d="M152 40L153 41L152 40M161 40L162 41L161 40z"/>
<path style="fill:#757575; stroke:none;" d="M168 40L169 41L168 40z"/>
<path style="fill:#434343; stroke:none;" d="M169 40L169 41L180 41L169 40z"/>
<path style="fill:#757575; stroke:none;" d="M180 40L181 41L180 40z"/>
<path style="fill:#434343; stroke:none;" d="M188 40L189 41L188 40z"/>
<path style="fill:#757575; stroke:none;" d="M222 40L223 41L222 40z"/>
<path style="fill:#434343; stroke:none;" d="M235 40L236 41L235 40M244 40L245 41L244 40M252 40L252 41L265 42L252 40z"/>
<path style="fill:#b0b0b0; stroke:none;" d="M264 40L265 41L264 40z"/>
<path style="fill:#434343; stroke:none;" d="M277 40L278 41L277 40M286 40L287 41L286 40M292 40L293 41L292 40z"/>
<path style="fill:#b0b0b0; stroke:none;" d="M293 40L294 41L293 40M301 40L302 41L301 40M18 41L18 44L19 44L18 41z"/>
<path style="fill:#757575; stroke:none;" d="M83 41L84 42L83 41z"/>
<path style="fill:#b0b0b0; stroke:none;" d="M91 41L92 42L91 41z"/>
<path style="fill:#757575; stroke:none;" d="M99 41L100 42L99 41z"/>
<path style="fill:#b0b0b0; stroke:none;" d="M109 41L110 42L109 41z"/>
<path style="fill:#757575; stroke:none;" d="M110.667 41.3333L111.333 41.6667L110.667 41.3333z"/>
<path style="fill:#b0b0b0; stroke:none;" d="M112 41L113 42L112 41z"/>
<path style="fill:#757575; stroke:none;" d="M122 41L123 42L122 41z"/>
<path style="fill:#434343; stroke:none;" d="M153 41L154 42L153 41M160 41L161 42L160 41z"/>
<path style="fill:#b0b0b0; stroke:none;" d="M188 41L189 42L188 41z"/>
<path style="fill:#757575; stroke:none;" d="M215 41L215 47L216 47L215 41z"/>
<path style="fill:#434343; stroke:none;" d="M222 41L223 42L222 41z"/>
<path style="fill:#b0b0b0; stroke:none;" d="M234 41L235 42L234 41z"/>
<path style="fill:#757575; stroke:none;" d="M244 41L245 42L244 41z"/>
<path style="fill:#b0b0b0; stroke:none;" d="M251 41L252 42L251 41z"/>
<path style="fill:#434343; stroke:none;" d="M272 41L273 42L272 41z"/>
<path style="fill:#b0b0b0; stroke:none;" d="M278 41L279 42L278 41M287.667 41.3333L288.333 41.6667L287.667 41.3333z"/>
<path style="fill:#757575; stroke:none;" d="M289.667 41.3333L290.333 41.6667L289.667 41.3333z"/>
<path style="fill:#b0b0b0; stroke:none;" d="M291 41L292 42L291 41z"/>
<path style="fill:#434343; stroke:none;" d="M301 41L302 42L301 41M21.3333 42.6667L21.6667 43.3333L21.3333 42.6667M92 42L93 43L92 42M145 42L146 43L145 42z"/>
<path style="fill:#b0b0b0; stroke:none;" d="M160 42L161 43L160 42M167 42L168 43L167 42M181 42L182 43L181 42M223 42L224 43L223 42z"/>
<path style="fill:#434343; stroke:none;" d="M234 42L235 43L234 42z"/>
<path style="fill:#757575; stroke:none;" d="M251 42L252 43L251 42z"/>
<path style="fill:#b0b0b0; stroke:none;" d="M272 42L273 43L272 42z"/>
<path style="fill:#434343; stroke:none;" d="M278 42L279 43L278 42z"/>
<path style="fill:#b0b0b0; stroke:none;" d="M300 42L301 43L300 42z"/>
<path style="fill:#434343; stroke:none;" d="M84 43L85 44L84 43z"/>
<path style="fill:#b0b0b0; stroke:none;" d="M92 43L93 44L92 43z"/>
<path style="fill:#434343; stroke:none;" d="M100 43L101 44L100 43M121 43L122 44L121 43z"/>
<path style="fill:#b0b0b0; stroke:none;" d="M146 43L147 44L146 43z"/>
<path style="fill:#757575; stroke:none;" d="M154 43L155 44L154 43M167 43L168 44L167 43z"/>
<path style="fill:#434343; stroke:none;" d="M181 43L182 44L181 43M189 43L190 44L189 43M223 43L224 44L223 43z"/>
<path style="fill:#b0b0b0; stroke:none;" d="M233 43L234 44L233 43z"/>
<path style="fill:#434343; stroke:none;" d="M243 43L244 44L243 43z"/>
<path style="fill:#757575; stroke:none;" d="M265 43L266 44L265 43z"/>
<path style="fill:#b0b0b0; stroke:none;" d="M279 43L280 44L279 43M299 43L298 45L299 43z"/>
<path style="fill:#434343; stroke:none;" d="M18 44L18 45L21 45L18 44z"/>
<path style="fill:#b0b0b0; stroke:none;" d="M85 44L86 45L85 44z"/>
<path style="fill:#434343; stroke:none;" d="M93 44L94 45L93 44M101 44L102 45L101 44z"/>
<path style="fill:#757575; stroke:none;" d="M120 44L121 45L120 44z"/>
<path style="fill:#434343; stroke:none;" d="M146 44L147 45L146 44M159 44L160 45L159 44z"/>
<path style="fill:#b0b0b0; stroke:none;" d="M189 44L190 45L189 44M224 44L225 45L224 44z"/>
<path style="fill:#434343; stroke:none;" d="M233 44L234 45L233 44z"/>
<path style="fill:#b0b0b0; stroke:none;" d="M243 44L244 45L243 44M250 44L251 45L250 44z"/>
<path style="fill:#434343; stroke:none;" d="M265 44L266 45L265 44M273 44L274 45L273 44z"/>
<path style="fill:#b0b0b0; stroke:none;" d="M280 44L281 45L280 44z"/>
<path style="fill:#434343; stroke:none;" d="M299 44L300 45L299 44M85 45L86 46L85 45M102 45L103 46L102 45M119 45L120 46L119 45z"/>
<path style="fill:#b0b0b0; stroke:none;" d="M147 45L148 46L147 45z"/>
<path style="fill:#757575; stroke:none;" d="M155 45L156 46L155 45z"/>
<path style="fill:#b0b0b0; stroke:none;" d="M159 45L160 46L159 45M166 45L167 46L166 45M182 45L183 46L182 45z"/>
<path style="fill:#434343; stroke:none;" d="M224 45L225 46L224 45z"/>
<path style="fill:#757575; stroke:none;" d="M250 45L251 46L250 45z"/>
<path style="fill:#b0b0b0; stroke:none;" d="M266 45L267 46L266 45M273 45L274 46L273 45z"/>
<path style="fill:#757575; stroke:none;" d="M281 45L282 46L281 45z"/>
<path style="fill:#b0b0b0; stroke:none;" d="M297 45L298 46L297 45M86 46L87 47L86 46z"/>
<path style="fill:#434343; stroke:none;" d="M94 46L95 47L94 46z"/>
<path style="fill:#757575; stroke:none;" d="M104 46L105 47L104 46z"/>
<path style="fill:#b0b0b0; stroke:none;" d="M105 46L106 47L105 46M116 46L117 47L116 46z"/>
<path style="fill:#757575; stroke:none;" d="M117 46L118 47L117 46M166 46L167 47L166 46z"/>
<path style="fill:#434343; stroke:none;" d="M182 46L183 47L182 46M190 46L191 47L190 46z"/>
<path style="fill:#757575; stroke:none;" d="M232 46L233 47L232 46z"/>
<path style="fill:#434343; stroke:none;" d="M242 46L243 47L242 46z"/>
<path style="fill:#757575; stroke:none;" d="M266 46L267 47L266 46M283 46L284 47L283 46z"/>
<path style="fill:#b0b0b0; stroke:none;" d="M295 46L296 47L295 46z"/>
<path style="fill:#434343; stroke:none;" d="M296 46L297 47L296 46z"/>
<path style="fill:#757575; stroke:none;" d="M10 47L11 48L10 47M48 47L49 48L48 47z"/>
<path style="fill:#434343; stroke:none;" d="M61 47L62 48L61 47M107 47L108 48L107 47z"/>
<path style="fill:#757575; stroke:none;" d="M108.667 47.3333L109.333 47.6667L108.667 47.3333z"/>
<path style="fill:#b0b0b0; stroke:none;" d="M110.667 47.3333L111.333 47.6667L110.667 47.3333z"/>
<path style="fill:#757575; stroke:none;" d="M112.667 47.3333L113.333 47.6667L112.667 47.3333z"/>
<path style="fill:#434343; stroke:none;" d="M114 47L115 48L114 47M285 47L286 48L285 47z"/>
<path style="fill:#757575; stroke:none;" d="M286 47L286 48L289 48L286 47z"/>
<path style="fill:#b0b0b0; stroke:none;" d="M289 47L290 48L289 47z"/>
<path style="fill:#757575; stroke:none;" d="M290 47L290 48L293 48L290 47z"/>
<path style="fill:#434343; stroke:none;" d="M293 47L294 48L293 47z"/>
<path style="fill:#b0b0b0; stroke:none;" d="M11 48L12 49L11 48M47 48L48 49L47 48z"/>
<path style="fill:#434343; stroke:none;" d="M58 48L59 49L58 48z"/>
<path style="fill:#b0b0b0; stroke:none;" d="M60 48L61 49L60 48z"/>
</svg>
